HIERARCHY
ROOT Hips
{
	OFFSET -0.179506 -22.333345 2.821913
	CHANNELS 6 Xposition Yposition Zposition Zrotation Yrotation Xrotation 
	JOINT LeftUpLeg
	{
		OFFSET 6.951974 -9.140623 -0.681533
		CHANNELS 3 Zrotation Yrotation Xrotation
		JOINT LeftLeg
		{
			OFFSET 3.427654 -37.519855 -0.449580
			CHANNELS 3 Zrotation Yrotation Xrotation
			JOINT LeftFoot
			{
				OFFSET -1.359570 -39.796059 -4.369333
				CHANNELS 3 Zrotation Yrotation Xrotation
				JOINT LeftToe
				{
					OFFSET 2.635814 -5.579078 11.928840
					CHANNELS 3 Zrotation Yrotation Xrotation
					End Site
					{
						OFFSET 0.000000 0.000000 0.000000
					}
				}
			}
		}
	}
	JOINT RightUpLeg
	{
		OFFSET -6.767048 -9.052170 -0.431982
		CHANNELS 3 Zrotation Yrotation Xrotation
		JOINT RightLeg
		{
			OFFSET -3.829005 -38.256897 -0.885003
			CHANNELS 3 Zrotation Yrotation Xrotation
			JOINT RightFoot
			{
				OFFSET 1.577377 -39.841461 -4.231180
				CHANNELS 3 Zrotation Yrotation Xrotation
				JOINT RightToe
				{
					OFFSET -2.537174 -4.814398 12.334795
					CHANNELS 3 Zrotation Yrotation Xrotation
					End Site
					{
						OFFSET 0.000000 0.000000 0.000000
					}
				}
			}
		}
	}
	JOINT Spine
	{
		OFFSET -0.253288 10.896323 -2.669631
		CHANNELS 3 Zrotation Yrotation Xrotation
		JOINT Spine1
		{
			OFFSET 0.548704 13.518043 0.109247
			CHANNELS 3 Zrotation Yrotation Xrotation
			JOINT Spine2
			{
				OFFSET 0.145701 5.292222 2.542457
				CHANNELS 3 Zrotation Yrotation Xrotation
				JOINT Neck
				{
					OFFSET -0.277840 21.387037 -4.285703
					CHANNELS 3 Zrotation Yrotation Xrotation
					JOINT Head
					{
						OFFSET 0.515184 6.496960 5.134897
						CHANNELS 3 Zrotation Yrotation Xrotation
						End Site
						{
							OFFSET 0.000000 0.000000 0.000000
						}
					}
				}
				JOINT LeftShoulder
				{
					OFFSET 7.884473 12.174932 -3.408961
					CHANNELS 3 Zrotation Yrotation Xrotation
					JOINT LeftArm
					{
						OFFSET 9.097692 3.046888 -0.886815
						CHANNELS 3 Zrotation Yrotation Xrotation
						JOINT LeftForeArm
						{
							OFFSET 25.961220 -1.277207 -2.745643
							CHANNELS 3 Zrotation Yrotation Xrotation
							JOINT LeftHand
							{
								OFFSET 24.923361 0.898606 -0.117091
								CHANNELS 3 Zrotation Yrotation Xrotation
								End Site
								{
									OFFSET 0.000000 0.000000 0.000000
								}
							}
						}
					}
				}
				JOINT RightShoulder
				{
					OFFSET -8.175920 11.883285 -3.861528
					CHANNELS 3 Zrotation Yrotation Xrotation
					JOINT RightArm
					{
						OFFSET -9.601238 3.255117 -0.914307
						CHANNELS 3 Zrotation Yrotation Xrotation
						JOINT RightForeArm
						{
							OFFSET -25.374195 -1.332924 -2.140099
							CHANNELS 3 Zrotation Yrotation Xrotation
							JOINT RightHand
							{
								OFFSET -25.529810 0.777228 -0.555919
								CHANNELS 3 Zrotation Yrotation Xrotation
								End Site
								{
									OFFSET 0.000000 0.000000 0.000000
								}
							}
						}
					}
				}
			}
		}
	}
}
MOTION
Frames: 16
Frame Time: 0.033333
-26.258644 -48.178024 89.006645 -115.654149 4.680255 81.449704 19.148125 4.107297 -8.549691 -7.399351 -1.293944 39.938979 3.897763 7.791979 -32.539627 nan nan nan -18.649665 -15.420891 -9.351669 1.730142 -13.135794 30.247329 9.299439 -7.325801 -12.055093 nan nan nan -0.844341 4.999957 11.203520 4.436979 -0.637574 -0.270247 1.024091 1.001157 0.739037 3.016749 -20.505119 -3.497686 1.396144 -29.710813 22.445034 -14.096077 -12.690129 -2.310068 -52.888998 -39.932949 20.277545 30.138096 -86.957360 -8.315929 5.200302 -21.982880 -23.998629 17.069175 6.837858 -3.283245 22.745813 8.218051 -13.772351 -37.680431 19.487998 -41.581896 -2.252374 12.959848 0.316925 
-26.272127 -48.225094 89.017242 -115.652090 4.686927 81.455373 19.124080 4.139581 -8.576374 -7.444985 -1.336915 39.994078 3.868696 7.773405 -32.513164 nan nan nan -18.630730 -15.335039 -9.296025 1.730910 -13.120396 30.085705 9.357824 -7.425269 -12.047016 nan nan nan -0.802882 4.916078 11.287408 4.474421 -0.667650 -0.434444 1.007142 1.029144 0.801765 3.006074 -20.487464 -3.596180 1.319283 -29.703466 22.523996 -14.042718 -12.778176 -2.407560 -52.817109 -40.122131 20.257027 29.346680 -86.869232 -7.187738 5.315241 -22.091078 -23.807998 17.021740 6.874781 -3.343686 22.931822 8.250529 -13.764667 -37.834162 19.493264 -41.677976 -2.380091 13.123049 -0.018201 
-26.285244 -48.286987 89.019859 -115.642194 4.671360 81.476358 19.074826 4.172818 -8.628603 -7.484402 -1.365014 40.023757 3.898820 7.775568 -32.522002 nan nan nan -18.637744 -15.320499 -9.293000 1.700548 -13.101100 29.980602 9.383197 -7.468939 -11.969600 nan nan nan -0.736856 4.850268 11.300416 4.480677 -0.698241 -0.487532 0.969461 1.043916 0.818826 2.971799 -20.496750 -3.700033 1.324640 -29.680937 22.521806 -14.028676 -12.893530 -2.461208 -52.743520 -40.269665 20.248129 30.102387 -86.790974 -7.812549 5.638316 -22.174537 -24.237369 17.000648 6.910556 -3.397959 23.043228 8.383604 -13.877903 -37.844903 19.391601 -41.826215 -2.765833 13.276582 -0.298928 
-26.325609 -48.360989 89.031219 -115.678591 4.622533 81.435885 18.996587 4.110003 -8.523831 -7.482268 -1.256853 39.927356 3.963391 7.799596 -32.541694 nan nan nan -18.735778 -15.270145 -9.214179 1.720813 -13.081329 29.848204 9.406304 -7.480706 -11.886883 nan nan nan -0.693813 4.912075 11.303693 4.487343 -0.672947 -0.358259 0.992812 0.955470 0.705547 2.871744 -20.574350 -3.802708 1.306498 -29.750849 22.530309 -14.076844 -13.037456 -2.359664 -52.662310 -40.320409 20.163683 33.291998 -86.811553 -11.495061 5.343140 -22.096415 -24.270582 17.057125 6.956865 -3.316585 22.951108 8.223370 -13.896807 -37.869917 19.497048 -42.130624 -2.862996 13.192696 -0.222470 
-26.388657 -48.433823 89.028908 -115.727166 4.575365 81.446254 18.907009 4.070322 -8.480197 -7.500209 -1.162277 39.892438 4.007576 7.841174 -32.593728 nan nan nan -18.823143 -15.303082 -9.188352 1.768287 -12.971406 29.717320 9.402203 -7.477929 -11.819522 nan nan nan -0.680835 4.949950 11.164888 4.529446 -0.712890 -0.255624 1.026688 0.922270 0.754913 2.793263 -20.618462 -3.904211 1.297880 -29.792385 22.528453 -13.989003 -13.105776 -2.342331 -52.886353 -40.452971 20.254426 33.885098 -86.765291 -12.289214 5.634414 -21.840127 -24.184840 17.091279 6.964973 -3.236971 22.832668 8.067654 -13.864052 -37.860974 19.646918 -42.102494 -2.905477 13.167464 0.063169 
-26.431929 -48.486858 89.020775 -115.807440 4.506379 81.470160 18.802006 4.099601 -8.490554 -7.497314 -1.142188 39.928913 4.131096 7.868995 -32.662991 nan nan nan -18.857668 -15.336428 -9.240358 1.746094 -12.803786 29.636267 9.401862 -7.472949 -11.753835 nan nan nan -0.694235 4.976626 11.008349 4.560025 -0.781292 -0.199173 1.019787 0.915282 0.879105 2.836673 -20.532155 -3.980946 1.310249 -29.790436 22.437885 -13.865802 -13.197818 -2.408842 -52.989924 -40.644405 20.310039 33.193514 -86.699555 -11.403363 6.251207 -21.690291 -24.095531 17.115013 6.977039 -3.316683 22.952160 8.178756 -13.785146 -37.993423 19.633369 -41.988877 -3.000527 13.166600 0.031123 
-26.458961 -48.544563 89.012955 -115.861084 4.465420 81.528672 18.720677 4.168406 -8.599559 -7.433543 -1.108749 40.010566 4.387912 7.880424 -32.707098 nan nan nan -18.851791 -15.319904 -9.354666 1.715708 -12.680795 29.604507 9.408338 -7.489399 -11.726962 nan nan nan -0.667592 4.989482 10.896238 4.566984 -0.810055 -0.190185 1.008776 0.828748 0.923013 2.913060 -20.408202 -4.065314 1.266793 -29.798981 22.380804 -13.820983 -13.339084 -2.405775 -52.915266 -40.783102 20.162269 34.686166 -86.588042 -12.669150 6.607306 -21.810581 -23.808845 17.085522 7.021051 -3.359399 23.180692 8.431809 -13.797987 -37.988894 19.564001 -41.901100 -3.682839 13.164261 -0.393569 
-26.490650 -48.600063 89.004112 -115.951971 4.448368 81.578850 18.704178 4.139582 -8.635280 -7.458731 -0.957758 40.037279 4.397220 7.933052 -32.754613 nan nan nan -18.851674 -15.264453 -9.461076 1.700550 -12.616117 29.592959 9.371852 -7.532962 -11.691865 nan nan nan -0.631649 4.979858 10.726048 4.587816 -0.839509 -0.066957 1.021402 0.771770 0.928951 2.926608 -20.335932 -4.127800 1.202828 -29.746943 22.345254 -13.803295 -13.525004 -2.396582 -52.712998 -40.852491 20.022744 38.240383 -86.522876 -16.337281 6.456049 -21.880989 -23.705865 17.087359 7.099263 -3.292002 23.201076 8.491614 -13.802646 -37.867794 19.547841 -41.827188 -3.801639 13.119006 -0.422146 
-26.551004 -48.645226 89.008293 -116.038813 4.384853 81.501273 18.626350 4.087834 -8.456380 -7.416071 -0.781226 39.953110 4.346637 7.971538 -32.757575 nan nan nan -18.984890 -15.229540 -9.346089 1.723168 -12.578047 29.503932 9.375534 -7.473216 -11.598407 nan nan nan -0.670205 4.977288 10.707259 4.632634 -0.885155 0.113696 1.050125 0.789330 0.848218 2.929929 -20.263871 -4.240195 1.087832 -29.739485 22.370608 -13.739178 -13.639581 -2.402923 -52.646783 -41.023319 20.050182 39.442447 -86.491923 -17.806626 6.250652 -21.931443 -24.151258 17.163790 7.104815 -3.289106 23.171254 8.559289 -13.690289 -37.866596 19.513120 -41.981200 -4.130593 13.260641 -0.430519 
-26.638540 -48.691349 89.015701 -116.187248 4.282977 81.345445 18.515718 4.118716 -8.121364 -7.360272 -0.708588 39.763060 4.409455 7.929214 -32.771828 nan nan nan -19.177855 -15.269148 -9.153099 1.770471 -12.421063 29.387503 9.438481 -7.355651 -11.539696 nan nan nan -0.705494 5.018995 10.761578 4.641076 -0.875847 0.358908 1.062595 0.808218 0.738547 2.928709 -20.214895 -4.413011 1.004303 -29.783813 22.453851 -13.638255 -13.668008 -2.522171 -52.809655 -41.293052 20.183372 38.491895 -86.429029 -17.037481 6.199591 -21.885993 -24.390173 17.270995 7.037004 -3.338786 23.166430 8.527879 -13.518705 -37.969591 19.609564 -42.125893 -3.961512 13.219021 -0.286793 
-26.702379 -48.743252 89.018806 -116.442253 4.207949 81.296666 18.459033 4.199884 -7.889395 -7.411067 -0.594323 39.629679 4.331782 7.927969 -32.715433 nan nan nan -19.215934 -15.219208 -9.196036 1.748320 -12.242456 29.331249 9.453765 -7.274200 -11.455301 nan nan nan -0.722823 5.014203 10.783959 4.650152 -0.826328 0.510386 1.072530 0.816532 0.610329 2.880261 -20.090408 -4.550749 1.010628 -29.754336 22.537499 -13.562046 -13.733944 -2.607378 -52.903526 -41.478557 20.239640 40.689881 -86.365196 -19.273205 6.072899 -21.756284 -24.153383 17.304352 7.050634 -3.306111 23.271153 8.450152 -13.314014 -38.029925 19.808395 -42.070806 -3.480877 13.063228 -0.216267 
-26.732538 -48.799831 89.028748 -116.818768 4.155157 81.345722 18.453062 4.252166 -7.766934 -7.481916 -0.338635 39.549840 4.206672 8.000408 -32.707599 nan nan nan -19.122841 -15.051890 -9.457887 1.672897 -12.088281 29.314610 9.428117 -7.213105 -11.363254 nan nan nan -0.684057 4.921309 10.786857 4.626766 -0.765204 0.461801 1.040531 0.885521 0.538909 2.822063 -19.885408 -4.565324 0.970508 -29.634980 22.624410 -13.514732 -13.726853 -2.628681 -53.006243 -41.562337 20.204027 43.458573 -86.321590 -22.232480 5.705667 -21.807090 -23.980389 17.298684 7.130524 -3.221765 23.591676 8.630795 -13.167191 -38.193652 19.859925 -42.244957 -3.508754 13.001389 -0.408424 
-26.756678 -48.851910 89.032890 -117.197599 4.048362 81.417859 18.385720 4.332465 -7.668809 -7.500405 -0.060508 39.431399 4.292663 8.101167 -32.754515 nan nan nan -19.092074 -14.927568 -9.773303 1.637418 -11.894414 29.332242 9.356580 -7.166810 -11.317705 nan nan nan -0.721746 4.858609 10.732591 4.603793 -0.726579 0.401567 1.014281 0.949419 0.516217 2.784214 -19.726981 -4.568484 0.852326 -29.564650 22.656146 -13.323188 -13.615391 -2.717802 -53.511657 -41.668305 20.343477 44.618366 -86.277379 -23.324968 5.748987 -21.695374 -24.398493 17.217610 7.162135 -3.140945 24.121409 9.058109 -13.043535 -38.380763 19.713435 -42.328344 -4.053349 13.027645 -0.704546 
-26.821257 -48.905869 89.043854 -117.572779 3.906751 81.413433 18.266777 4.472843 -7.415301 -7.535254 0.118763 39.241623 4.363738 8.174989 -32.761613 nan nan nan -19.150680 -14.822374 -9.965583 1.609556 -11.682143 29.300623 9.281865 -7.071431 -11.171517 nan nan nan -0.745068 4.810612 10.697100 4.542767 -0.697197 0.403800 0.955368 1.000416 0.486431 2.775640 -19.615326 -4.519085 0.846262 -29.495036 22.689802 -13.189265 -13.617297 -2.826215 -53.932649 -41.805082 20.529710 45.080985 -86.195017 -23.829638 5.921031 -21.492396 -24.967860 17.247607 7.216990 -3.008428 24.513839 9.310430 -12.881250 -38.456312 19.714539 -42.409937 -4.306317 12.972935 -1.008077 
-26.919537 -48.942566 89.069817 -117.964274 3.767914 81.321467 18.139600 4.600105 -7.021743 -7.489145 0.336544 39.029585 4.410472 8.225707 -32.770393 nan nan nan -19.257961 -14.715390 -9.970260 1.631137 -11.459118 29.161161 9.307329 -6.949812 -11.012241 nan nan nan -0.778097 4.847262 10.677811 4.478430 -0.678317 0.497964 0.928080 0.988378 0.454677 2.736244 -19.531678 -4.385321 1.030891 -29.369178 22.536944 -13.180893 -13.813640 -2.796904 -54.031252 -42.031928 20.532036 46.989701 -86.111056 -26.040968 6.066620 -21.508992 -25.146730 17.350081 7.303494 -2.811338 24.778250 9.230134 -12.692592 -38.488681 20.023786 -42.564707 -4.257445 13.032709 -1.338616 
-26.992327 -48.961269 89.102364 -118.342928 3.687584 81.251922 18.092665 4.740596 -6.700493 -7.476633 0.481011 38.874375 4.415238 8.269323 -32.783233 nan nan nan -19.231548 -14.631106 -10.002680 1.587238 -11.215502 29.018064 9.361228 -6.807000 -10.868903 nan nan nan -0.808123 4.811166 10.695752 4.453637 -0.720834 0.567159 0.925248 1.004834 0.370553 2.629951 -19.362738 -4.291393 1.091932 -29.196654 22.490633 -13.242771 -14.072647 -2.739926 -53.878594 -42.178567 20.428780 50.123118 -86.049015 -29.347122 6.010203 -21.469959 -25.162802 17.530885 7.464194 -2.575573 25.023143 9.110422 -12.467535 -38.689652 20.332232 -42.734871 -3.967269 12.969516 -1.768855 
